<svg width="12" height="14" viewBox="0 0 12 14" fill="none" xmlns="http://www.w3.org/2000/svg">
<path d="M2.25467 1.6455C3.31716 0.794214 4.63854 0.331333 6 0.333504C7.41667 0.333504 8.71867 0.82417 9.74533 1.6455L10.714 0.676837L11.6567 1.6195L10.688 2.58817C11.5393 3.65067 12.0022 4.97204 12 6.3335V7.00017H0V6.3335C0 4.91684 0.490667 3.61484 1.312 2.58817L0.343333 1.62017L1.286 0.677504L2.25467 1.64617V1.6455ZM0 8.3335H12V13.0002C12 13.177 11.9298 13.3466 11.8047 13.4716C11.6797 13.5966 11.5101 13.6668 11.3333 13.6668H0.666667C0.489856 13.6668 0.320286 13.5966 0.195262 13.4716C0.0702379 13.3466 0 13.177 0 13.0002V8.3335ZM4 5.00017C4.17681 5.00017 4.34638 4.92993 4.4714 4.80491C4.59643 4.67988 4.66667 4.51031 4.66667 4.3335C4.66667 4.15669 4.59643 3.98712 4.4714 3.8621C4.34638 3.73708 4.17681 3.66684 4 3.66684C3.82319 3.66684 3.65362 3.73708 3.5286 3.8621C3.40357 3.98712 3.33333 4.15669 3.33333 4.3335C3.33333 4.51031 3.40357 4.67988 3.5286 4.80491C3.65362 4.92993 3.82319 5.00017 4 5.00017ZM8 5.00017C8.17681 5.00017 8.34638 4.92993 8.47141 4.80491C8.59643 4.67988 8.66667 4.51031 8.66667 4.3335C8.66667 4.15669 8.59643 3.98712 8.47141 3.8621C8.34638 3.73708 8.17681 3.66684 8 3.66684C7.82319 3.66684 7.65362 3.73708 7.5286 3.8621C7.40357 3.98712 7.33333 4.15669 7.33333 4.3335C7.33333 4.51031 7.40357 4.67988 7.5286 4.80491C7.65362 4.92993 7.82319 5.00017 8 5.00017Z" fill="#7C7C7C"/>
</svg>
