<svg width="48" height="48" viewBox="0 0 48 48" fill="none" xmlns="http://www.w3.org/2000/svg">
<path d="M17.93 36C17.6922 37.6686 16.8604 39.1954 15.5874 40.2999C14.3143 41.4044 12.6854 42.0125 11 42.0125C9.31456 42.0125 7.68571 41.4044 6.41264 40.2999C5.13957 39.1954 4.30776 37.6686 4.07 36H2V12C2 11.4696 2.21071 10.9609 2.58579 10.5858C2.96086 10.2107 3.46957 10 4 10H32C32.5304 10 33.0391 10.2107 33.4142 10.5858C33.7893 10.9609 34 11.4696 34 12V16H40L46 24.112V36H41.93C41.6922 37.6686 40.8604 39.1954 39.5874 40.2999C38.3143 41.4044 36.6854 42.0125 35 42.0125C33.3146 42.0125 31.6857 41.4044 30.4126 40.2999C29.1396 39.1954 28.3078 37.6686 28.07 36H17.93ZM30 14H6V30.1C6.78912 29.2944 7.7612 28.6914 8.83351 28.3422C9.90581 27.9931 11.0466 27.9082 12.1588 28.0948C13.2709 28.2814 14.3215 28.7339 15.2212 29.4138C16.1209 30.0937 16.843 30.981 17.326 32H28.674C29.01 31.294 29.46 30.652 30 30.1V14ZM34 26H42V25.43L37.984 20H34V26ZM35 38C35.7959 38 36.5592 37.6838 37.122 37.121C37.6848 36.5582 38.001 35.7949 38.001 34.999C38.001 34.2031 37.6848 33.4398 37.122 32.877C36.5592 32.3142 35.7959 31.998 35 31.998C34.2041 31.998 33.4408 32.3142 32.878 32.877C32.3152 33.4398 31.999 34.2031 31.999 34.999C31.999 35.7949 32.3152 36.5582 32.878 37.121C33.4408 37.6838 34.2041 38 35 38ZM14 35C14 34.606 13.9224 34.2159 13.7716 33.8519C13.6209 33.488 13.3999 33.1573 13.1213 32.8787C12.8427 32.6001 12.512 32.3791 12.1481 32.2284C11.7841 32.0776 11.394 32 11 32C10.606 32 10.2159 32.0776 9.85195 32.2284C9.48797 32.3791 9.15726 32.6001 8.87868 32.8787C8.6001 33.1573 8.37913 33.488 8.22836 33.8519C8.0776 34.2159 8 34.606 8 35C8 35.7956 8.31607 36.5587 8.87868 37.1213C9.44129 37.6839 10.2044 38 11 38C11.7956 38 12.5587 37.6839 13.1213 37.1213C13.6839 36.5587 14 35.7956 14 35Z" fill="#F73859"/>
</svg>
