<svg width="48" height="48" viewBox="0 0 48 48" fill="none" xmlns="http://www.w3.org/2000/svg">
<path d="M28 38H38V10H10V38H24V28H20V24H24V20.692C24 18.018 24.28 17.048 24.8 16.07C25.3122 15.1024 26.1039 14.3114 27.072 13.8C27.836 13.39 28.786 13.144 30.446 13.038C31.104 12.996 31.956 13.048 33.002 13.198V16.998H32C30.166 16.998 29.408 17.084 28.956 17.326C28.6863 17.4647 28.4667 17.6843 28.328 17.954C28.088 18.406 28 18.854 28 20.69V24H33L32 28H28V38ZM8 6H40C40.5304 6 41.0391 6.21071 41.4142 6.58579C41.7893 6.96086 42 7.46957 42 8V40C42 40.5304 41.7893 41.0391 41.4142 41.4142C41.0391 41.7893 40.5304 42 40 42H8C7.46957 42 6.96086 41.7893 6.58579 41.4142C6.21071 41.0391 6 40.5304 6 40V8C6 7.46957 6.21071 6.96086 6.58579 6.58579C6.96086 6.21071 7.46957 6 8 6Z" fill="white"/>
</svg>
