<svg width="13" height="16" viewBox="0 0 13 16" fill="none" xmlns="http://www.w3.org/2000/svg">
<path d="M6.74937 4.81441C6.16537 4.81441 5.26137 4.15041 4.30937 4.17441C3.05337 4.19041 1.90137 4.90241 1.25337 6.03041C-0.0506256 8.29441 0.917374 11.6384 2.18937 13.4784C2.81337 14.3744 3.54937 15.3824 4.52537 15.3504C5.46137 15.3104 5.81337 14.7424 6.94937 14.7424C8.07737 14.7424 8.39737 15.3504 9.38937 15.3264C10.3974 15.3104 11.0374 14.4144 11.6534 13.5104C12.3654 12.4704 12.6614 11.4624 12.6774 11.4064C12.6534 11.3984 10.7174 10.6544 10.6934 8.41441C10.6774 6.54241 12.2214 5.64641 12.2934 5.60641C11.4134 4.31841 10.0614 4.17441 9.58937 4.14241C8.35737 4.04641 7.32537 4.81441 6.74937 4.81441ZM8.82937 2.92641C9.34937 2.30241 9.69337 1.43041 9.59737 0.566406C8.85337 0.598406 7.95737 1.06241 7.42137 1.68641C6.94137 2.23841 6.52537 3.12641 6.63737 3.97441C7.46137 4.03841 8.30937 3.55041 8.82937 2.92641Z" fill="#367BF5"/>
</svg>
