<svg width="11" height="13" viewBox="0 0 11 13" fill="none" xmlns="http://www.w3.org/2000/svg">
<path d="M0.559878 10.9316H2.37992V12.7046C2.37992 12.7909 2.4042 12.8615 2.45307 12.9167C2.5018 12.9722 2.5641 13 2.63999 13H3.9968C4.06722 13 4.12815 12.9722 4.17962 12.9167C4.23108 12.8615 4.25674 12.7908 4.25674 12.7046V10.9316H8.35987C8.4356 10.9316 8.49792 10.9042 8.54676 10.8487C8.59565 10.7931 8.61992 10.7225 8.61992 10.6362V9.45435C8.61992 9.3686 8.59565 9.29748 8.54676 9.24228C8.49805 9.18672 8.4356 9.15895 8.35987 9.15895H4.2566V8.06941H7.01911C8.1024 8.06941 8.98654 7.69431 9.67194 6.94305C10.3571 6.19258 10.6998 5.22314 10.6998 4.03471C10.6998 2.84706 10.3571 1.8776 9.67194 1.12636C8.98667 0.375861 8.10237 0 7.01911 0H2.63986C2.56394 0 2.50178 0.0277519 2.45294 0.0829754C2.4042 0.138505 2.37978 0.209605 2.37978 0.295383V6.10305H0.559878C0.483988 6.10305 0.421801 6.13223 0.372958 6.19069C0.324249 6.24917 0.299805 6.31841 0.299805 6.39841V7.77398C0.299805 7.86024 0.324092 7.9309 0.372958 7.98641C0.421824 8.04196 0.483854 8.06938 0.559878 8.06938H2.37992V9.15892H0.559878C0.483988 9.15892 0.421801 9.1867 0.372958 9.24225C0.324249 9.29745 0.299805 9.36842 0.299805 9.45433V10.6362C0.299805 10.7225 0.324092 10.7931 0.372958 10.8486C0.421801 10.9042 0.483966 10.9316 0.559878 10.9316ZM4.2566 1.96682H6.85662C7.43072 1.96682 7.89377 2.15756 8.24597 2.53919C8.59798 2.92083 8.77407 3.41958 8.77407 4.03486C8.77407 4.65045 8.59798 5.14934 8.24597 5.53053C7.89377 5.91248 7.4307 6.10323 6.85662 6.10323H4.2566V1.96682Z" fill="#222222"/>
</svg>
