<svg width="8" height="8" viewBox="0 0 8 8" fill="none" xmlns="http://www.w3.org/2000/svg">
<path d="M0.95985 6.72716H2.07987V7.81821C2.07987 7.87129 2.09482 7.91475 2.12489 7.94872C2.15488 7.98291 2.19322 8 2.23992 8H3.07488C3.11821 8 3.15571 7.98291 3.18738 7.94872C3.21905 7.91475 3.23484 7.87128 3.23484 7.81821V6.72716H5.75984C5.80645 6.72716 5.8448 6.71028 5.87486 6.67609C5.90494 6.64194 5.91987 6.59845 5.91987 6.54537V5.81806C5.91987 5.76529 5.90494 5.72152 5.87486 5.68756C5.84488 5.65337 5.80645 5.63628 5.75984 5.63628H3.23476V4.96579H4.93476C5.6014 4.96579 6.14548 4.73496 6.56727 4.27265C6.98889 3.81082 7.1998 3.21424 7.1998 2.4829C7.1998 1.75203 6.98889 1.15545 6.56727 0.693145C6.14557 0.231299 5.60138 0 4.93476 0H2.23984C2.19312 0 2.15487 0.0170781 2.12481 0.0510618C2.09482 0.0852337 2.07979 0.128987 2.07979 0.181774V3.75572H0.95985C0.913149 3.75572 0.87488 3.77368 0.844822 3.80966C0.814847 3.84565 0.799805 3.88826 0.799805 3.93748V4.78399C0.799805 4.83707 0.814751 4.88056 0.844822 4.91471C0.874893 4.9489 0.913066 4.96578 0.95985 4.96578H2.07987V5.63626H0.95985C0.913149 5.63626 0.87488 5.65335 0.844822 5.68754C0.814847 5.72151 0.799805 5.76518 0.799805 5.81805V6.54535C0.799805 6.59844 0.814751 6.64192 0.844822 6.67608C0.87488 6.71028 0.913135 6.72716 0.95985 6.72716ZM3.23476 1.21035H4.83476C5.18806 1.21035 5.47301 1.32773 5.68975 1.56258C5.90638 1.79743 6.01474 2.10435 6.01474 2.48299C6.01474 2.86181 5.90638 3.16883 5.68975 3.4034C5.47301 3.63845 5.18805 3.75583 4.83476 3.75583H3.23476V1.21035Z" fill="#7C7C7C"/>
</svg>
