<svg width="48" height="48" viewBox="0 0 48 48" fill="none" xmlns="http://www.w3.org/2000/svg">
<path d="M44 14H46V34H44V40C44 40.5304 43.7893 41.0391 43.4142 41.4142C43.0391 41.7893 42.5304 42 42 42H6C5.46957 42 4.96086 41.7893 4.58579 41.4142C4.21071 41.0391 4 40.5304 4 40V8C4 7.46957 4.21071 6.96086 4.58579 6.58579C4.96086 6.21071 5.46957 6 6 6H42C42.5304 6 43.0391 6.21071 43.4142 6.58579C43.7893 6.96086 44 7.46957 44 8V14ZM40 34H28C25.3478 34 22.8043 32.9464 20.9289 31.0711C19.0536 29.1957 18 26.6522 18 24C18 21.3478 19.0536 18.8043 20.9289 16.9289C22.8043 15.0536 25.3478 14 28 14H40V10H8V38H40V34ZM42 30V18H28C26.4087 18 24.8826 18.6321 23.7574 19.7574C22.6321 20.8826 22 22.4087 22 24C22 25.5913 22.6321 27.1174 23.7574 28.2426C24.8826 29.3679 26.4087 30 28 30H42ZM28 22H34V26H28V22Z" fill="#F73859"/>
</svg>
